<svg width="24" height="24" viewBox="0 0 24 24" fill="none" xmlns="http://www.w3.org/2000/svg">
<g clip-path="url(#clip0_2532_10907)">
<path d="M23.7913 5.38533C23.6045 5.1461 23.3179 5.00627 23.0143 5.00627H4.24893L3.96999 1.89878C3.92437 1.3906 3.49847 1.00122 2.98828 1.00122H0.985657C0.441293 1.00122 0 1.44251 0 1.98688C0 2.53124 0.441293 2.97254 0.985657 2.97254H2.08715L3.16753 15.0088C3.16776 15.0229 3.16706 15.0369 3.16785 15.0512C3.17006 15.089 3.17499 15.126 3.18128 15.1624L3.2208 15.6025C3.22155 15.6108 3.22239 15.6191 3.22338 15.6273C3.34316 16.6651 3.87349 17.5642 4.64038 18.1717C4.24302 18.6792 4.00524 19.3173 4.00524 20.0103C4.00524 21.658 5.34578 22.9986 6.99347 22.9986C8.64121 22.9986 9.98175 21.658 9.98175 20.0103C9.98175 19.6533 9.91862 19.3109 9.80334 18.9933H15.198C15.0827 19.3109 15.0196 19.6533 15.0196 20.0103C15.0196 21.658 16.3601 22.9986 18.0079 22.9986C19.6556 22.9986 20.9961 21.658 20.9961 20.0103C20.9961 18.3625 19.6556 17.022 18.0079 17.022H7.00014C6.25141 17.022 5.59895 16.5703 5.31734 15.9121L21.0695 14.9864C21.4995 14.9611 21.8633 14.6594 21.9679 14.2415L23.9706 6.23093C24.0442 5.93655 23.978 5.62461 23.7913 5.38533Z" fill="black"/>
</g>
<defs>
<clipPath id="clip0_2532_10907">
<rect width="24" height="24" fill="white"/>
</clipPath>
</defs>
</svg>
