<svg width="16" height="16" viewBox="0 0 16 16" fill="none" xmlns="http://www.w3.org/2000/svg">
  <path d="M15.8609 3.59025C15.7363 3.43076 15.5453 3.33755 15.3429 3.33755H2.83262L2.64666 1.26588C2.61625 0.927099 2.33231 0.667511 1.99219 0.667511H0.657105C0.294195 0.667511 0 0.961706 0 1.32462C0 1.68753 0.294195 1.98172 0.657105 1.98172H1.39143L2.11168 10.0059C2.11184 10.0153 2.11137 10.0246 2.1119 10.0341C2.11337 10.0594 2.11666 10.084 2.12085 10.1083L2.1472 10.4017C2.1477 10.4072 2.14826 10.4128 2.14892 10.4182C2.22877 11.1101 2.58233 11.7095 3.09359 12.1145C2.82868 12.4528 2.67016 12.8782 2.67016 13.3402C2.67016 14.4387 3.56385 15.3324 4.66231 15.3324C5.76081 15.3324 6.6545 14.4387 6.6545 13.3402C6.6545 13.1023 6.61241 12.874 6.53556 12.6622H10.132C10.0551 12.874 10.0131 13.1023 10.0131 13.3402C10.0131 14.4387 10.9067 15.3324 12.0052 15.3324C13.1037 15.3324 13.9974 14.4387 13.9974 13.3402C13.9974 12.2417 13.1037 11.348 12.0052 11.348H4.66676C4.16761 11.348 3.73264 11.0469 3.54489 10.6081L14.0463 9.99095C14.333 9.97412 14.5756 9.77298 14.6452 9.49437L15.9804 4.15398C16.0294 3.95773 15.9854 3.74977 15.8609 3.59025Z" fill="white"></path>
</svg> 