<svg width="18" height="24" viewBox="0 0 18 24" fill="none" xmlns="http://www.w3.org/2000/svg">
<g clip-path="url(#clip0_2532_10877)">
<path d="M1.99535 7.05721C2.96047 6.28799 2.92899 5.21275 2.92726 5.16397C2.87336 4.15961 3.03852 1.11609 3.04499 1.00603C3.06095 0.813411 3.06483 0.258907 3.06483 0.253904V0.00541996L2.22822 0L2.22693 0.250569C2.2265 0.319361 2.22089 0.80674 2.20882 0.947242L2.20795 0.958499C2.19027 1.28453 2.03589 4.1692 2.09023 5.19649C2.08979 5.2632 2.07125 5.94653 1.46234 6.43183C0.558888 7.15185 0 8.53894 0 9.41197L0.0383805 23.9587L0.876282 23.9566L0.837901 9.41114C0.837901 8.73531 1.33297 7.58503 1.99535 7.05721Z" fill="#020203"/>
<path d="M8.44414 7.0572C9.40451 6.29174 9.37778 5.214 9.37648 5.16856V5.16397C9.32215 4.15252 9.48904 1.09483 9.49421 1.00644C9.50629 0.857604 9.51146 0.480709 9.51362 0.268496L9.51707 0.00541996L8.67744 0L8.67572 0.250569C8.67529 0.318944 8.66968 0.805906 8.65804 0.948076L8.65761 0.95433C8.65588 0.986016 8.48166 4.11166 8.53944 5.19607C8.53901 5.26278 8.5209 5.94611 7.91156 6.43141C7.00854 7.15143 6.44922 8.53852 6.44922 9.41155L6.4876 23.9583L7.32593 23.9562L7.28755 9.41072C7.28669 8.73531 7.78175 7.58461 8.44414 7.0572Z" fill="#020203"/>
<path d="M14.7527 7.0572C15.7114 6.29341 15.6868 5.21442 15.6851 5.16897V5.16397C15.6329 4.19505 15.7847 1.33248 15.8024 1.00936V1.00603C15.8179 0.814662 15.8218 0.259324 15.8218 0.254321V0.00541996L14.9955 0L14.9839 0.240146C14.9839 0.24098 14.9834 0.251403 14.9834 0.269747C14.9787 0.740033 14.9705 0.895544 14.9662 0.946825L14.9658 0.95433C14.964 0.985599 14.7903 4.12042 14.8476 5.19607C14.8472 5.24569 14.8273 5.94736 14.2197 6.43141C13.3167 7.15143 12.7578 8.53852 12.7578 9.41155L12.7962 23.9583L13.6345 23.9562L13.5961 9.41072C13.5957 8.73531 14.0903 7.58502 14.7527 7.0572Z" fill="#020203"/>
<path d="M4.80843 22.9733C4.5734 22.7748 4.29396 22.5639 3.97743 22.3466C3.78854 22.217 3.63028 22.114 3.49918 22.0365C3.58284 21.9205 3.72472 21.7534 3.96406 21.5174C4.3733 21.1163 4.39271 21.0938 4.40565 21.0788L4.57038 20.8874L4.3733 20.7273C4.26334 20.6381 4.13483 20.591 4.00114 20.591C3.76137 20.591 3.45649 20.7674 3.01058 21.1651C2.98298 21.1901 2.91226 21.2572 2.64446 21.5195C2.62678 21.3977 2.6091 21.2747 2.59099 21.1492C2.54096 20.8028 2.42064 20.5155 2.23262 20.2966L2.155 20.2062H1.84451L1.76688 20.2987C1.6871 20.3942 1.63061 20.5005 1.59956 20.6156C1.57239 20.7165 1.55859 20.8291 1.55859 20.95C1.55859 21.0959 1.58317 21.2943 1.6332 21.557C1.68797 21.8426 1.69918 21.9902 1.69918 22.0636V22.4175C1.69918 22.581 1.70522 22.7406 1.71772 22.8911C1.7298 23.05 1.75136 23.1959 1.78068 23.3239L1.83416 23.5557L2.07608 23.5165C2.6492 23.4235 2.74968 23.0537 2.75831 22.8419C2.75917 22.8207 2.76003 22.8002 2.76089 22.7811C2.87905 22.8465 3.03042 22.9362 3.22318 23.0596C3.51815 23.2564 3.81916 23.4556 4.11801 23.6524C4.54666 23.9347 4.70967 23.9914 4.83344 23.9914C4.97316 23.9914 5.10728 23.9585 5.23234 23.8934L5.42855 23.7909L5.35265 23.5878C5.3147 23.4857 5.21811 23.3227 4.80843 22.9733Z" fill="#020203"/>
<path d="M11.9761 20.9372C11.8912 20.6883 11.7562 20.4832 11.5742 20.3277L11.3228 20.1125L11.1714 20.4023C11.1188 20.5036 11.0839 20.6049 11.0688 20.7017C11.055 20.7863 11.0481 20.8872 11.0481 21.0106C11.0481 21.1624 11.0679 21.3842 11.1067 21.6693C11.143 21.9374 11.1611 22.1359 11.1611 22.2588C11.1611 22.4373 11.1335 22.6066 11.08 22.76C11.0339 22.888 10.9761 22.9709 10.9325 22.9709C10.8829 22.9709 10.7945 22.9051 10.6945 22.7212C10.5923 22.4852 10.4896 22.248 10.3879 22.0091L10.3857 22.0041C10.2809 21.7731 10.1063 21.4663 9.79706 21.4663C9.6983 21.4663 9.55254 21.4967 9.41799 21.6418L9.37013 21.6939L9.35676 21.7623C9.3559 21.7677 9.35245 21.7811 9.34253 21.8169C9.3283 21.8699 9.32183 21.912 9.32183 21.9503C9.32183 22.1663 9.26749 22.3877 9.16054 22.6099C9.05791 22.8242 8.94449 22.9343 8.82331 22.9372C8.81383 22.9288 8.78364 22.8972 8.75043 22.8075C8.68747 22.6403 8.65556 22.3868 8.65556 22.0537V21.7423C8.65556 21.6018 8.64952 21.4692 8.63788 21.3487C8.62494 21.2182 8.60209 21.0981 8.56974 20.9914L8.4891 20.7246L8.22303 20.8301C8.00913 20.9147 7.85 21.0827 7.76117 21.3174C7.70381 21.4721 7.67578 21.6543 7.67578 21.8736C7.67578 22.2021 7.72926 22.564 7.83491 22.9493C7.89744 23.1744 8.08675 23.859 8.61244 23.859C8.819 23.859 9.07343 23.7514 9.41325 23.5213L9.42015 23.5163C9.44344 23.4992 9.58187 23.3962 9.79576 23.2369C9.89107 23.3641 10.0036 23.4763 10.1317 23.5721C10.3745 23.7514 10.6367 23.8423 10.911 23.8423C11.2577 23.8423 11.7178 23.6772 11.9442 22.8901C12.0365 22.5615 12.0818 22.1321 12.0788 21.6143C12.08 21.3675 12.0451 21.1398 11.9761 20.9372Z" fill="#020203"/>
<path d="M17.2545 21.8469C16.9677 21.7435 16.5356 21.6767 15.9327 21.6421C15.6421 21.6259 15.4368 21.6105 15.2915 21.5967C15.3618 21.5058 15.442 21.427 15.5338 21.3586C15.7231 21.2198 15.9258 21.1527 16.154 21.1527C16.2579 21.1527 16.3769 21.189 16.5097 21.2623C16.5253 21.2707 16.5938 21.3136 16.9013 21.5242L17.1385 21.6868L17.2782 21.4399C17.3226 21.3611 17.3515 21.3024 17.3688 21.2565C17.3933 21.1927 17.405 21.1197 17.405 21.0339C17.405 20.8633 17.3312 20.5536 16.8353 20.3935C16.6365 20.3309 16.3967 20.2988 16.1225 20.2988C15.7249 20.2988 15.3113 20.4452 14.893 20.7337C14.4247 21.0572 14.1875 21.4245 14.1875 21.8256C14.1875 22.0653 14.3203 22.3772 14.953 22.4981L16.1591 22.6365C16.4645 22.6786 16.7133 22.7436 16.903 22.8308C16.8245 22.8787 16.7288 22.9242 16.6184 22.9667C16.3821 23.058 16.1695 23.1043 15.9866 23.1043C15.95 23.1043 15.8146 23.0951 15.3471 23.0096C15.1673 22.9767 15.0202 22.9609 14.8973 22.9609C14.7598 22.9609 14.6295 22.9825 14.5109 23.0255L14.2733 23.111L14.3574 23.3423C14.4484 23.5929 14.6209 23.7755 14.8714 23.8856C15.0478 23.9627 15.2665 24.0002 15.5403 24.0002C15.9931 24.0002 16.4623 23.926 16.9345 23.7793C17.6409 23.5587 17.9988 23.2273 17.9988 22.7945C17.9984 22.4881 17.8699 22.0749 17.2545 21.8469Z" fill="#020203"/>
</g>
<defs>
<clipPath id="clip0_2532_10877">
<rect width="18" height="24" fill="white"/>
</clipPath>
</defs>
</svg>
