<svg width="30" height="30" viewBox="0 0 30 30" fill="none" xmlns="http://www.w3.org/2000/svg">
<g clip-path="url(#clip0_2532_9998)">
<path d="M29.9726 8.82008C29.9024 7.22607 29.6446 6.1302 29.2753 5.18061C28.8944 4.17264 28.3084 3.27022 27.5405 2.52002C26.7903 1.75816 25.882 1.16615 24.8857 0.79117C23.9306 0.421912 22.8404 0.16414 21.2464 0.0938599C19.6405 0.0176273 19.1307 0 15.0576 0C10.9846 0 10.4747 0.0176273 8.87477 0.0879078C7.28076 0.158188 6.18488 0.416188 5.23553 0.785218C4.22733 1.16615 3.3249 1.7522 2.57471 2.52002C1.81284 3.27022 1.22107 4.1786 0.845858 5.17488C0.476599 6.1302 0.218828 7.22011 0.148547 8.81413C0.0723148 10.42 0.0546875 10.9299 0.0546875 15.0029C0.0546875 19.076 0.0723148 19.5858 0.142595 21.1858C0.212876 22.7798 0.470876 23.8757 0.840135 24.8253C1.22107 25.8332 1.81284 26.7356 2.57471 27.4858C3.3249 28.2477 4.23328 28.8397 5.22957 29.2147C6.18488 29.584 7.2748 29.8417 8.86905 29.912C10.4688 29.9825 10.9788 29.9999 15.0519 29.9999C19.125 29.9999 19.6348 29.9825 21.2347 29.912C22.8288 29.8417 23.9246 29.584 24.874 29.2147C26.8902 28.4352 28.4842 26.8412 29.2637 24.8253C29.6327 23.8699 29.8907 22.7798 29.961 21.1858C30.0313 19.5858 30.0489 19.076 30.0489 15.0029C30.0489 10.9299 30.0429 10.42 29.9726 8.82008ZM27.2711 21.0686C27.2065 22.5337 26.9604 23.3249 26.7553 23.8523C26.2512 25.1593 25.214 26.1965 23.907 26.7006C23.3796 26.9057 22.5827 27.1518 21.1233 27.2162C19.5409 27.2867 19.0664 27.3041 15.0636 27.3041C11.0608 27.3041 10.5803 27.2867 9.00366 27.2162C7.53853 27.1518 6.74736 26.9057 6.21991 26.7006C5.56953 26.4602 4.97753 26.0793 4.49701 25.5812C3.99886 25.0947 3.61793 24.5086 3.37756 23.8583C3.17244 23.3308 2.92634 22.5337 2.86201 21.0745C2.79151 19.4922 2.77411 19.0174 2.77411 15.0146C2.77411 11.0118 2.79151 10.5313 2.86201 8.95492C2.92634 7.48979 3.17244 6.69862 3.37756 6.17117C3.61793 5.52056 3.99886 4.92879 4.50296 4.44804C4.9892 3.9499 5.57525 3.56896 6.22586 3.32882C6.75331 3.1237 7.55043 2.87761 9.00961 2.81305C10.592 2.74277 11.0667 2.72514 15.0693 2.72514C19.078 2.72514 19.5526 2.74277 21.1292 2.81305C22.5943 2.87761 23.3855 3.1237 23.913 3.32882C24.5633 3.56896 25.1553 3.9499 25.6359 4.44804C26.134 4.93451 26.5149 5.52056 26.7553 6.17117C26.9604 6.69862 27.2065 7.49551 27.2711 8.95492C27.3414 10.5373 27.359 11.0118 27.359 15.0146C27.359 19.0174 27.3414 19.4862 27.2711 21.0686Z" fill="white"/>
<path d="M15.0542 7.29712C10.7996 7.29712 7.34766 10.7489 7.34766 15.0037C7.34766 19.2585 10.7996 22.7103 15.0542 22.7103C19.3091 22.7103 22.7608 19.2585 22.7608 15.0037C22.7608 10.7489 19.3091 7.29712 15.0542 7.29712ZM15.0542 20.0028C12.2941 20.0028 10.0552 17.7641 10.0552 15.0037C10.0552 12.2433 12.2941 10.0046 15.0542 10.0046C17.8146 10.0046 20.0533 12.2433 20.0533 15.0037C20.0533 17.7641 17.8146 20.0028 15.0542 20.0028Z" fill="white"/>
<path d="M24.868 6.99176C24.868 7.9853 24.0624 8.79089 23.0687 8.79089C22.0751 8.79089 21.2695 7.9853 21.2695 6.99176C21.2695 5.99799 22.0751 5.19263 23.0687 5.19263C24.0624 5.19263 24.868 5.99799 24.868 6.99176Z" fill="white"/>
</g>
<defs>
<clipPath id="clip0_2532_9998">
<rect width="30" height="30" fill="white"/>
</clipPath>
</defs>
</svg>
