<svg width="24" height="24" viewBox="0 0 24 24" fill="none" xmlns="http://www.w3.org/2000/svg">
<g clip-path="url(#clip0_2532_9968)">
<path d="M23.7592 0.0273675C23.6681 -0.00912252 23.5664 -0.00912252 23.4752 0.0273675L23.476 0.0285138L0.240008 9.21522C0.0441361 9.29374 -0.0510055 9.51617 0.0275627 9.71204C0.0645782 9.80436 0.136125 9.87863 0.227016 9.91904L9.8176 14.1825L14.081 23.773C14.1423 23.9109 14.279 23.9999 14.4299 24H14.4379C14.592 23.9969 14.7291 23.9015 14.7856 23.7581L23.972 0.524091C24.0503 0.328172 23.9551 0.105793 23.7592 0.0273675ZM14.4097 22.6325L10.4561 13.7377C10.4177 13.6514 10.3487 13.5824 10.2624 13.544L1.36762 9.59044L22.9369 1.06323L14.4097 22.6325Z" fill="white"/>
</g>
<defs>
<clipPath id="clip0_2532_9968">
<rect width="24" height="24" fill="white"/>
</clipPath>
</defs>
</svg>
