<svg width="24" height="24" viewBox="0 0 24 24" fill="none" xmlns="http://www.w3.org/2000/svg">
<g clip-path="url(#clip0_2532_10913)">
<path d="M12.0008 0C8.57224 0 5.76953 2.80271 5.76953 6.2313C5.76953 9.6599 8.57224 12.4626 12.0008 12.4626C15.4294 12.4626 18.2321 9.6599 18.2321 6.2313C18.2321 2.80271 15.4294 0 12.0008 0Z" fill="black"/>
<path d="M22.6987 17.4423C22.5354 17.0341 22.3178 16.6532 22.0729 16.2994C20.8212 14.449 18.8892 13.2246 16.7124 12.9252C16.4403 12.8981 16.141 12.9524 15.9232 13.1157C14.7804 13.9593 13.4199 14.3946 12.0049 14.3946C10.5899 14.3946 9.22934 13.9593 8.08647 13.1157C7.86876 12.9524 7.56944 12.8708 7.29736 12.9252C5.12048 13.2246 3.16132 14.449 1.93684 16.2994C1.69194 16.6532 1.47423 17.0613 1.311 17.4423C1.22939 17.6056 1.25658 17.796 1.33819 17.9593C1.5559 18.3402 1.82798 18.7212 2.07288 19.0477C2.45382 19.5648 2.86199 20.0273 3.3246 20.4627C3.70554 20.8436 4.1409 21.1974 4.57632 21.5511C6.72595 23.1566 9.311 24.0001 11.9777 24.0001C14.6443 24.0001 17.2294 23.1565 19.379 21.5511C19.8144 21.2246 20.2498 20.8436 20.6307 20.4627C21.0661 20.0273 21.5015 19.5647 21.8825 19.0477C22.1545 18.694 22.3995 18.3402 22.6171 17.9593C22.7531 17.796 22.7803 17.6055 22.6987 17.4423Z" fill="black"/>
</g>
<defs>
<clipPath id="clip0_2532_10913">
<rect width="24" height="24" fill="white"/>
</clipPath>
</defs>
</svg>
