<svg width="213" height="47" viewBox="0 0 213 47" fill="none" xmlns="http://www.w3.org/2000/svg">
<g clip-path="url(#clip0_2532_10893)">
<path d="M74.2375 22.2275V22.1565C79.1451 21.2389 83.1411 17.7815 83.1411 11.2189C83.1411 3.66952 79.0049 0 69.3299 0H58.2529H56.4295H52.9366H51.1132H47.6202H45.7969V1.83519V44.5953V46.4305H47.6202H51.1132H52.9366H56.4295H58.2529H71.3631C80.6176 46.4305 85.5252 41.9143 85.5252 33.7295C85.5252 25.4028 79.5666 22.6508 74.2375 22.2275ZM58.2529 1.69323H69.3299C77.8129 1.69323 81.3186 4.58626 81.3186 11.431C81.3186 18.2758 76.2707 21.5921 69.5397 21.5921H58.2529V1.83519V1.69323ZM47.6211 44.5953V1.83519H51.114V44.5953H47.6211ZM52.9374 44.5953V1.83519H56.4303V44.5953H52.9374ZM71.2934 44.8074H58.2529V44.5953V23.2152H69.8906C78.4442 23.2152 83.6322 25.9672 83.6322 33.6585C83.6322 41.2798 79.4264 44.8074 71.2934 44.8074Z" fill="#C49955"/>
<path d="M116.172 24.6263C123.954 23.3563 126.757 18.7692 126.757 12.2067C126.757 5.36276 123.042 0 112.736 0H102.335H100.466H97.0186H95.1952H91.7023H89.8789V1.83519V44.5953V46.4305H91.7023H95.1952H97.0186H100.466H101.941H102.289V24.9085H114.278L127.598 46.4305H129.702L116.171 24.7674V24.6263H116.172ZM91.704 44.5953V1.83519H95.1969V44.5953H91.704ZM97.0194 44.5953V1.83519H100.466V44.5953H97.0194ZM112.876 23.4265H102.29V1.83519H102.336V1.69323H112.666C121.92 1.69323 124.935 6.13839 124.935 12.2067C124.935 18.2758 122.201 23.4265 112.876 23.4265Z" fill="#C49955"/>
<path d="M169.743 30.8382C169.743 40.4067 165.562 44.5645 158.166 45.3119C150.755 44.573 146.515 40.4058 146.515 30.8382V1.83947H146.517V0.00427584H146.515V0H144.687V0.00427584H141.207V0H139.38V0.00427584H135.891V0H134.063V0.00427584H134.062V1.83947H134.063V30.981C134.063 38.2303 136.617 42.8593 141.217 45.1862C143.019 46.0935 145.139 46.6562 147.535 46.8743L154.504 46.9838L155.438 47.0009C156.381 47.0009 157.29 46.959 158.159 46.8752C160.545 46.6485 162.632 46.0935 164.394 45.2033C168.951 42.8849 171.355 38.2559 171.355 30.9143V0H169.744V30.8382H169.743ZM135.89 30.8382V1.83947H139.379V30.981C139.379 38.2388 141.941 42.8593 146.54 45.1862C139.747 44.178 135.89 39.9611 135.89 30.8382ZM141.207 30.8382V1.83947H144.687V30.981C144.687 38.2303 147.242 42.8593 151.841 45.1862C145.055 44.1694 141.207 39.9611 141.207 30.8382Z" fill="#C49955"/>
<path d="M212.999 0.000855167H200.581V0H198.757V0.000855167H189.949V0H188.126V0.000855167H175.707V1.69751H188.126V46.4305H188.498H189.949H198.757H200.581V44.5953V1.69751H212.999V0.000855167ZM189.949 1.69751H193.444V44.5953H189.949V1.69751ZM198.757 44.5953H195.196V1.69751H198.757V44.5953Z" fill="#C49955"/>
<path d="M33.4655 0H10.5103H10.0829V11.0513L10.0863 11.1719C10.1611 12.5316 9.94355 12.7052 8.52717 13.8366C5.06821 16.6005 -0.116403 20.7446 0.00254898 44.5961H0V46.4305H0.0212415H0.0220911H7.52627H7.52712H15.0313H15.0322H31.6438H33.4663L33.4655 0ZM1.83696 44.5961C1.71716 21.6383 6.48544 17.8268 9.66741 15.2836C11.1501 14.0991 12.0456 13.3834 11.9199 11.0967L11.9182 1.83433H17.5871V11.059L17.5913 11.1711C17.6652 12.5308 17.4477 12.7044 16.0314 13.8366C12.5707 16.6022 7.38778 20.7464 7.50673 44.5961H1.83696ZM9.34199 44.5961C9.22134 21.64 13.9896 17.8277 17.1716 15.2836C18.6543 14.0991 19.5498 13.3834 19.4249 11.0881L19.4223 1.83433H25.0913V11.059L25.0955 11.1711C25.1703 12.5299 24.9528 12.7035 23.5355 13.8358C20.0766 16.6005 14.892 20.7438 15.0118 44.5944H9.34199V44.5961ZM16.8462 44.5961C16.7255 21.6392 21.4947 17.8277 24.6792 15.2827C26.1601 14.0983 27.0548 13.3825 26.9291 11.089L26.9265 1.83519H31.643V44.5961H16.8462Z" fill="#C49955"/>
</g>
<defs>
<clipPath id="clip0_2532_10893">
<rect width="213" height="47" fill="white"/>
</clipPath>
</defs>
</svg>
